<svg width="16" height="16" viewBox="0 0 16 16" fill="none" xmlns="http://www.w3.org/2000/svg">
<g clip-path="url(#clip0_104_4)">
<path d="M16 14.2222C16 14.6937 15.8127 15.1459 15.4793 15.4793C15.1459 15.8127 14.6937 16 14.2222 16H1.77778C1.30628 16 0.854097 15.8127 0.520699 15.4793C0.187301 15.1459 0 14.6937 0 14.2222V1.77778C0 1.30628 0.187301 0.854097 0.520699 0.520699C0.854097 0.187301 1.30628 0 1.77778 0L14.2222 0C14.6937 0 15.1459 0.187301 15.4793 0.520699C15.8127 0.854097 16 1.30628 16 1.77778V14.2222Z" fill="#09657B"/>
<path d="M13.0134 2.82755C12.7661 2.66736 12.4654 2.61184 12.1773 2.67317C11.8891 2.7345 11.6371 2.90767 11.4765 3.15466L6.63827 10.612L4.40316 8.54532C4.29645 8.44397 4.17067 8.36483 4.03312 8.31249C3.89557 8.26015 3.749 8.23565 3.6019 8.24043C3.45481 8.24521 3.31013 8.27916 3.17627 8.34031C3.0424 8.40146 2.92202 8.4886 2.82212 8.59666C2.72221 8.70473 2.64476 8.83156 2.59428 8.9698C2.54379 9.10804 2.52127 9.25494 2.52803 9.40195C2.53478 9.54897 2.57067 9.69318 2.63362 9.82621C2.69657 9.95923 2.78532 10.0784 2.89472 10.1769L6.09872 13.1395C6.31205 13.3373 6.58316 13.4351 6.8525 13.4351C7.15161 13.4351 7.53427 13.3098 7.78538 12.9289C7.93294 12.704 13.3409 4.36443 13.3409 4.36443C13.4204 4.24201 13.4749 4.10515 13.5014 3.96166C13.5279 3.81817 13.5259 3.67086 13.4955 3.52815C13.4651 3.38543 13.4068 3.25011 13.3241 3.1299C13.2414 3.00969 13.1358 2.90695 13.0134 2.82755V2.82755Z" fill="#F8F8F8"/>
</g>
<defs>
<clipPath id="clip0_104_4">
<rect width="16" height="16" fill="white"/>
</clipPath>
</defs>
</svg>
